<svg width="18" height="20" viewBox="0 0 18 20" fill="none" xmlns="http://www.w3.org/2000/svg">
<path fill-rule="evenodd" clip-rule="evenodd" d="M3 0.25C2.0335 0.25 1.25 1.0335 1.25 2V7H1C0.447715 7 0 7.44772 0 8V16C0 16.5523 0.447715 17 1 17H1.25V18C1.25 18.9665 2.0335 19.75 3 19.75H16C16.9665 19.75 17.75 18.9665 17.75 18V2C17.75 1.0335 16.9665 0.25 16 0.25H3ZM8 7H2.75V2C2.75 1.86193 2.86193 1.75 3 1.75H16C16.1381 1.75 16.25 1.86193 16.25 2V18C16.25 18.1381 16.1381 18.25 16 18.25H3C2.86193 18.25 2.75 18.1381 2.75 18V17H8C8.55229 17 9 16.5523 9 16V8C9 7.44772 8.55229 7 8 7ZM14 3.64392V15.5563C14 15.7376 13.9507 15.9154 13.8575 16.0708L13.1715 17.2141C13.0938 17.3436 12.9062 17.3436 12.8285 17.2141L12.1425 16.0708C12.0493 15.9154 12 15.7376 12 15.5563V3.64392C12 3.28075 12.1969 2.94613 12.5144 2.76976C12.8164 2.60197 13.1836 2.60197 13.4856 2.76976C13.8031 2.94613 14 3.28075 14 3.64392ZM10.75 3C10.75 3.41421 10.4142 3.75 10 3.75L5 3.75C4.58579 3.75 4.25 3.41421 4.25 3C4.25 2.58579 4.58579 2.25 5 2.25L10 2.25C10.4142 2.25 10.75 2.58579 10.75 3ZM7 5.75C7.41421 5.75 7.75 5.41421 7.75 5C7.75 4.58579 7.41421 4.25 7 4.25L5 4.25C4.58579 4.25 4.25 4.58579 4.25 5C4.25 5.41421 4.58579 5.75 5 5.75L7 5.75ZM1.5 8.5V15.5H7.5V8.5H1.5ZM6.66361 10.2115C6.71459 9.80046 6.42268 9.4259 6.01162 9.37492C5.60055 9.32394 5.22599 9.61585 5.17501 10.0269L4.98681 11.5445L3.60308 9.67329C3.41792 9.4229 3.0973 9.31298 2.79746 9.3971C2.49763 9.48121 2.28096 9.74187 2.25306 10.052L1.96327 13.2736C1.92616 13.6862 2.23051 14.0507 2.64306 14.0878C3.05561 14.1249 3.42013 13.8206 3.45724 13.408L3.57025 12.1517L4.89702 13.9459C5.07943 14.1926 5.3937 14.3033 5.69045 14.2254C5.9872 14.1475 6.20659 13.8967 6.24435 13.5923L6.66361 10.2115Z" fill="white"/>
</svg>
